<?xml version="1.0" encoding="utf-8"?>
<svg viewBox="0 0 637.2784745770684 253.08308379888265" height="157.073281614549" width="395.52" xmlns="http://www.w3.org/2000/svg">
  <g transform="matrix(1,0,0,1,241.75847457706848,78.20634636871507)">
    <svg viewBox="0 0 395.5199999999999 96.6703910614525" height="96.6703910614525" width="395.5199999999999">
      <g id="textblocktransform">
        <svg viewBox="0 0 395.5199999999999 96.6703910614525" height="96.6703910614525" width="395.5199999999999" id="textblock">
          <g>
            <svg viewBox="0 0 395.5199999999999 96.6703910614525" height="96.6703910614525" width="395.5199999999999">
              <g transform="matrix(1,0,0,1,0,0)">
                <svg width="395.5199999999999" viewBox="1.5499999523162842 -43.349998474121094 178.989990234375 43.75" height="96.6703910614525" data-palette-color="#010c80">
                  <path d="M11.9 0.4Q7.2 0.4 4.38-2.55 1.55-5.5 1.55-10.65L1.55-10.65 1.55-30.45Q1.55-36.85 4.1-40.1 6.65-43.35 12.1-43.35L12.1-43.35Q16.85-43.35 19.75-40.75 22.65-38.15 22.65-33.25L22.65-33.25 22.65-25.85 14.1-25.85 14.1-32.2Q14.1-34.05 13.65-34.75 13.2-35.45 12.1-35.45L12.1-35.45Q10.95-35.45 10.53-34.65 10.1-33.85 10.1-32.3L10.1-32.3 10.1-10.75Q10.1-9.05 10.6-8.28 11.1-7.5 12.1-7.5L12.1-7.5Q14.1-7.5 14.1-10.75L14.1-10.75 14.1-18.5 22.75-18.5 22.75-10.4Q22.75 0.4 11.9 0.4L11.9 0.4ZM35.85 0.4Q30.65 0.4 27.95-2.78 25.25-5.95 25.25-11.7L25.25-11.7 25.25-32.15Q25.25-37.7 27.95-40.53 30.65-43.35 35.85-43.35L35.85-43.35Q41.05-43.35 43.75-40.53 46.45-37.7 46.45-32.15L46.45-32.15 46.45-11.7Q46.45-5.9 43.75-2.75 41.05 0.4 35.85 0.4L35.85 0.4ZM35.85-7.5Q37-7.5 37.4-8.5 37.8-9.5 37.8-11.3L37.8-11.3 37.8-32.3Q37.8-33.7 37.42-34.58 37.05-35.45 35.9-35.45L35.9-35.45Q33.75-35.45 33.75-32.2L33.75-32.2 33.75-11.25Q33.75-9.4 34.2-8.45 34.65-7.5 35.85-7.5L35.85-7.5ZM57.65 0L49.9 0 49.9-42.95 63-42.95 66.59-16.75 70.2-42.95 83.4-42.95 83.4 0 75.55 0 75.55-30.95 70.59 0 62.9 0 57.65-30.95 57.65 0ZM87.19 0L87.19-42.95 98.54-42.95Q103.69-42.95 105.89-39.63 108.09-36.3 108.09-29.9L108.09-29.9Q108.09-23.5 106.14-20.25 104.19-17 99.14-17L99.14-17 95.64-17 95.64 0 87.19 0ZM95.64-24.75L96.14-24.75Q97.69-24.75 98.42-25.33 99.14-25.9 99.37-26.98 99.59-28.05 99.59-30.05L99.59-30.05Q99.59-32.75 98.99-33.95 98.39-35.15 96.59-35.15L96.59-35.15 95.64-35.15 95.64-24.75ZM119.34 0L110.79 0 110.79-42.95 119.34-42.95 119.34-27.6 123.39-27.6 123.39-42.95 131.94-42.95 131.94 0 123.39 0 123.39-19.5 119.34-19.5 119.34 0ZM145.69 0.4Q140.39 0.4 137.81-2.6 135.24-5.6 135.24-11.5L135.24-11.5 135.24-42.95 143.59-42.95 143.59-11.85Q143.59-9.8 143.99-8.65 144.39-7.5 145.69-7.5L145.69-7.5Q146.99-7.5 147.39-8.63 147.79-9.75 147.79-11.85L147.79-11.85 147.79-42.95 156.14-42.95 156.14-11.5Q156.14-5.6 153.56-2.6 150.99 0.4 145.69 0.4L145.69 0.4ZM159.44 0L159.44-42.95 171.09-42.95Q175.79-42.95 177.91-40.65 180.04-38.35 180.04-33.15L180.04-33.15 180.04-31.25Q180.04-25.1 175.64-23.9L175.64-23.9Q178.34-23.2 179.44-20.65 180.54-18.1 180.54-13.9L180.54-13.9Q180.54-7.05 178.49-3.53 176.44 0 171.09 0L171.09 0 159.44 0ZM167.84-26.8L169.59-26.8Q170.69-26.8 171.09-27.63 171.49-28.45 171.49-29.95L171.49-29.95 171.49-34.25Q171.49-36.35 169.64-36.35L169.64-36.35 167.84-36.35 167.84-26.8ZM168.69-7.55Q172.04-7.55 172.04-10.75L172.04-10.75 172.04-16.1Q172.04-18.05 171.46-19.05 170.89-20.05 169.44-20.05L169.44-20.05 167.84-20.05 167.84-7.6 168.69-7.55Z" opacity="1" transform="matrix(1,0,0,1,0,0)" fill="#010c80" class="wordmark-text-0" data-fill-palette-color="primary" id="text-0"/>
                </svg>
              </g>
            </svg>
          </g>
        </svg>
      </g>
    </svg>
  </g>
  <g>
    <svg viewBox="0 0 218.93691533684503 253.08308379888265" height="253.08308379888265" width="218.93691533684503">
      <g>
        <svg xmlns="http://www.w3.org/2000/svg" version="1.1" x="0" y="0" viewBox="17.299999237060547 12.199999809265137 65.39999389648438 75.60000610351562" style="enable-background:new 0 0 100 100;" height="253.08308379888265" width="218.93691533684503" class="icon-icon-0" data-fill-palette-color="accent" id="icon-0">
          <path d="M50 12.2L17.3 31.1v37.8L50 87.8l32.7-18.9V31.1L50 12.2zM32.1 37.4L50 16l17 21.4H32.1zM67.3 39.4L50 70.4l-18.2-31H67.3zM48.1 71l-27.7-4.5 9.8-25.9L48.1 71zM68.9 40.7l10.7 25.9-27.7 4.5L68.9 40.7zM69.2 37.1L52.6 16l27 15.6L69.2 37.1zM29.8 37.1l-9.4-5.5 26.8-15.5L29.8 37.1zM28.8 38.8l-9.5 25V33.3L28.8 38.8zM49 73.2v11.7L20.9 68.7 49 73.2zM51 73.2l28.1-4.5L51 84.9V73.2zM70.3 38.8l10.5-5.6v30.9L70.3 38.8z" fill="#77d4fc" data-fill-palette-color="accent"/>
        </svg>
      </g>
    </svg>
  </g>
</svg>