<svg data-v-6805eed4="" version="1.0" xmlns="http://www.w3.org/2000/svg" xmlns:xlink="http://www.w3.org/1999/xlink" width="100%" height="100%" viewBox="0 0 200.000000 100.000000" preserveAspectRatio="xMidYMid meet" color-interpolation-filters="sRGB" style="margin: auto;"> <rect data-v-6805eed4="" x="0" y="0" width="100%" height="100%" fill="#0c343d" fill-opacity="0"></rect> <rect data-v-6805eed4="" x="0" y="0" width="100%" height="100%" fill="url(#watermark)" fill-opacity="1" ></rect> <g data-v-6805eed4="" fill="#010c80"  transform="translate(88.57499694824219,94.27200126647949)"><g data-gra="path-name"><g transform="scale(1)"><g><path d="M12.87 0Q7.87 0 5.12-2.53 2.37-5.06 2.37-9.96L2.37-9.96 2.37-28.55Q2.37-33.44 5.12-35.97 7.87-38.5 12.87-38.5L12.87-38.5 20.24-38.5 20.24-34.87 12.87-34.87Q10.34-34.87 8.77-33.41 7.21-31.96 7.21-29.54L7.21-29.54 7.21-8.96Q7.21-6.54 8.77-5.09 10.34-3.63 12.87-3.63L12.87-3.63 20.24-3.63 20.24 0 12.87 0ZM31.63 0.39Q27.77 0.39 25.66-1.57 23.54-3.52 23.54-6.99L23.54-6.99 23.54-21.61Q23.54-25.08 25.66-27.03 27.77-28.98 31.63-28.98L31.63-28.98Q35.48-28.98 37.59-27.03 39.71-25.08 39.71-21.61L39.71-21.61 39.71-6.99Q39.71-3.52 37.59-1.57 35.48 0.39 31.63 0.39L31.63 0.39ZM31.63-3.02Q33.38-3.02 34.4-4.04 35.42-5.06 35.42-6.99L35.42-6.99 35.42-21.61Q35.42-23.54 34.4-24.56 33.38-25.57 31.63-25.57L31.63-25.57Q29.87-25.57 28.85-24.56 27.83-23.54 27.83-21.61L27.83-21.61 27.83-6.99Q27.83-5.06 28.85-4.04 29.87-3.02 31.63-3.02L31.63-3.02ZM45.21 0L45.21-28.6 48.62-28.6 49.11-27 51.37-27.66Q53.68-28.38 55.03-28.68 56.38-28.98 57.58-28.98L57.58-28.98Q59.95-28.98 60.88-26.89L60.88-26.89Q62.42-27.45 65.23-28.21 68.03-28.98 69.35-28.98L69.35-28.98Q71.33-28.98 72.3-27.61 73.26-26.23 73.26-24.04L73.26-24.04 73.26 0 68.86 0 68.86-22.61Q68.86-24.2 68.64-24.83 68.42-25.46 67.54-25.46L67.54-25.46Q67.1-25.46 61.49-23.71L61.49-23.71 61.49 0 57.09 0 57.09-22.61Q57.09-24.2 56.87-24.83 56.65-25.46 55.77-25.46L55.77-25.46Q55.33-25.46 49.61-23.71L49.61-23.71 49.61 0 45.21 0ZM79.31 8.8L79.31-28.6 88.22-28.6Q91.24-28.6 93.36-26.62 95.48-24.64 95.48-21.67L95.48-21.67 95.48-6.88Q95.48-3.9 93.39-1.95 91.3 0 88.27 0L88.27 0 83.71 0 83.71 8.8 79.31 8.8ZM83.71-3.25L87.34-3.25Q88.88-3.25 89.98-4.29 91.08-5.33 91.08-6.88L91.08-6.88 91.08-21.67Q91.08-23.21 89.98-24.25 88.88-25.3 87.34-25.3L87.34-25.3 83.71-25.3 83.71-3.25ZM101.42 0L101.42-38.5 110.77-38.5Q115.88-38.5 118.41-36.16 120.94-33.83 120.94-28.82L120.94-28.82Q120.94-26.07 119.93-23.79 118.91-21.5 117.37-20.46L117.37-20.46Q119.51-19.3 120.92-17 122.32-14.69 122.32-11.71L122.32-11.71Q122.32-6.66 119.82-3.33 117.31 0 109.94 0L109.94 0 101.42 0ZM106.26-22.39L109.72-22.39Q113.02-22.39 114.84-24.06 116.65-25.74 116.65-28.93L116.65-28.93Q116.65-32.06 114.89-33.47 113.13-34.87 109.72-34.87L109.72-34.87 106.26-34.87 106.26-22.39ZM106.26-3.63L109.67-3.63Q113.68-3.63 115.69-5.53 117.7-7.42 117.7-11.55L117.7-11.55Q117.7-15.23 115.33-16.94 112.97-18.64 109.72-18.64L109.72-18.64 106.26-18.64 106.26-3.63ZM134.42 0.39Q130.57 0.39 128.45-1.57 126.33-3.52 126.33-6.99L126.33-6.99 126.33-21.61Q126.33-25.08 128.45-27.03 130.57-28.98 134.42-28.98L134.42-28.98Q138.27-28.98 140.39-27.03 142.5-25.08 142.5-21.61L142.5-21.61 142.5-6.99Q142.5-3.52 140.39-1.57 138.27 0.39 134.42 0.39L134.42 0.39ZM134.42-3.02Q136.18-3.02 137.2-4.04 138.22-5.06 138.22-6.99L138.22-6.99 138.22-21.61Q138.22-23.54 137.2-24.56 136.18-25.57 134.42-25.57L134.42-25.57Q132.66-25.57 131.64-24.56 130.63-23.54 130.63-21.61L130.63-21.61 130.63-6.99Q130.63-5.06 131.64-4.04 132.66-3.02 134.42-3.02L134.42-3.02ZM149.87 0L145.25 0 153.17-14.36 145.8-28.6 150.04-28.6 155.21-18.48 160.43-28.6 164.67-28.6 157.3-14.36 165.22 0 160.6 0 155.21-10.45 149.87 0Z" transform="translate(-70, -40)"></path></g> <!----> <!----> <!----> <!----> <!----> <!----> <!----></g></g> <g data-gra="path-slogan" fill-rule="" class="tp-slogan" fill="#010c80" transform="matrix(1,0,0,1,21.410003662109375,53.29999923706055)" opacity="1"><!----> <!----> <g transform="scale(1, 1)"><g transform="scale(1)"><path d="M4.43-3.20L2.06-3.20L2.44-4.40C2.58-4.84 2.72-5.28 2.84-5.72C2.97-6.15 3.10-6.60 3.22-7.06L3.26-7.06C3.39-6.60 3.52-6.15 3.65-5.72C3.78-5.28 3.91-4.84 4.06-4.40ZM4.68-2.40L5.42 0L6.49 0L3.83-7.87L2.70-7.87L0.04 0L1.06 0L1.81-2.40ZM7.61-7.87L7.61 0L12.05 0L12.05-0.85L8.60-0.85L8.60-7.87ZM13.44-7.87L13.44 0L17.88 0L17.88-0.85L14.44-0.85L14.44-7.87ZM23.33-7.03L23.33 0L24.34 0L24.34-7.03L26.71-7.03L26.71-7.87L20.95-7.87L20.95-7.03ZM28.13-7.87L28.13 0L32.78 0L32.78-0.85L29.12-0.85L29.12-3.71L32.11-3.71L32.11-4.56L29.12-4.56L29.12-7.03L32.66-7.03L32.66-7.87ZM34.00-3.94C34.00-3.30 34.08-2.72 34.25-2.21C34.43-1.71 34.67-1.28 34.97-0.93C35.28-0.58 35.65-0.32 36.07-0.13C36.49 0.05 36.94 0.14 37.44 0.14C37.94 0.14 38.39 0.04 38.78-0.16C39.18-0.36 39.53-0.64 39.84-1.00L39.28-1.61C39.02-1.33 38.75-1.11 38.47-0.96C38.18-0.81 37.85-0.73 37.46-0.73C37.09-0.73 36.75-0.81 36.45-0.96C36.15-1.11 35.90-1.33 35.69-1.61C35.48-1.89 35.32-2.23 35.20-2.62C35.09-3.02 35.03-3.46 35.03-3.96C35.03-4.45 35.09-4.89 35.21-5.28C35.33-5.67 35.50-6.01 35.71-6.28C35.93-6.56 36.19-6.77 36.49-6.92C36.80-7.07 37.14-7.14 37.51-7.14C37.85-7.14 38.14-7.07 38.39-6.94C38.65-6.81 38.88-6.63 39.08-6.41L39.65-7.04C39.42-7.30 39.12-7.53 38.76-7.72C38.40-7.92 37.98-8.02 37.50-8.02C37.00-8.02 36.53-7.92 36.10-7.73C35.67-7.55 35.30-7.28 34.99-6.92C34.68-6.57 34.44-6.14 34.26-5.64C34.08-5.14 34.00-4.57 34.00-3.94ZM41.30-7.87L41.30 0L42.30 0L42.30-3.71L45.96-3.71L45.96 0L46.97 0L46.97-7.87L45.96-7.87L45.96-4.57L42.30-4.57L42.30-7.87ZM51.55-7.87L51.55 0L52.55 0L52.55-7.87ZM54.71-7.87L54.71 0L55.66 0L55.66-4.12C55.66-4.53 55.64-4.95 55.61-5.36C55.59-5.77 55.56-6.18 55.52-6.58L55.57-6.58L56.42-4.96L59.28 0L60.31 0L60.31-7.87L59.36-7.87L59.36-3.80C59.36-3.39 59.38-2.97 59.41-2.54C59.43-2.11 59.46-1.70 59.48-1.30L59.44-1.30L58.58-2.93L55.74-7.87ZM67.80 0.14C68.30 0.14 68.75 0.05 69.16-0.14C69.57-0.34 69.93-0.61 70.23-0.97C70.53-1.32 70.76-1.75 70.93-2.26C71.09-2.77 71.17-3.34 71.17-3.97C71.17-4.60 71.09-5.16 70.93-5.66C70.76-6.16 70.53-6.58 70.23-6.93C69.93-7.28 69.57-7.55 69.16-7.73C68.75-7.92 68.30-8.02 67.80-8.02C67.30-8.02 66.85-7.92 66.44-7.74C66.03-7.56 65.67-7.29 65.38-6.94C65.08-6.59 64.85-6.17 64.69-5.67C64.52-5.17 64.44-4.60 64.44-3.97C64.44-3.34 64.52-2.77 64.69-2.26C64.85-1.75 65.08-1.32 65.38-0.97C65.67-0.61 66.03-0.34 66.44-0.14C66.85 0.05 67.30 0.14 67.80 0.14ZM67.80-0.73C67.45-0.73 67.13-0.81 66.85-0.96C66.56-1.11 66.32-1.33 66.11-1.61C65.91-1.90 65.75-2.24 65.64-2.63C65.53-3.03 65.47-3.48 65.47-3.97C65.47-4.46 65.53-4.90 65.64-5.29C65.75-5.68 65.91-6.02 66.11-6.29C66.32-6.56 66.56-6.77 66.85-6.92C67.13-7.07 67.45-7.14 67.80-7.14C68.15-7.14 68.47-7.07 68.75-6.92C69.04-6.77 69.28-6.56 69.49-6.29C69.69-6.02 69.85-5.68 69.96-5.29C70.07-4.90 70.13-4.46 70.13-3.97C70.13-3.48 70.07-3.03 69.96-2.63C69.85-2.24 69.69-1.90 69.49-1.61C69.28-1.33 69.04-1.11 68.75-0.96C68.47-0.81 68.15-0.73 67.80-0.73ZM72.86-7.87L72.86 0L73.81 0L73.81-4.12C73.81-4.53 73.80-4.95 73.77-5.36C73.74-5.77 73.71-6.18 73.68-6.58L73.73-6.58L74.58-4.96L77.44 0L78.47 0L78.47-7.87L77.52-7.87L77.52-3.80C77.52-3.39 77.53-2.97 77.56-2.54C77.59-2.11 77.62-1.70 77.64-1.30L77.59-1.30L76.74-2.93L73.90-7.87ZM80.63-7.87L80.63 0L85.28 0L85.28-0.85L81.62-0.85L81.62-3.71L84.61-3.71L84.61-4.56L81.62-4.56L81.62-7.03L85.16-7.03L85.16-7.87ZM89.38-7.87L89.38 0L90.37 0L90.37-3.12L91.79-3.12C92.22-3.12 92.61-3.17 92.97-3.27C93.33-3.37 93.63-3.52 93.89-3.72C94.14-3.92 94.34-4.17 94.48-4.48C94.62-4.78 94.69-5.14 94.69-5.56C94.69-5.99 94.62-6.35 94.48-6.65C94.34-6.94 94.15-7.18 93.89-7.36C93.64-7.54 93.34-7.67 92.98-7.75C92.62-7.83 92.22-7.87 91.79-7.87ZM91.67-3.94L90.37-3.94L90.37-7.07L91.67-7.07C92.35-7.07 92.86-6.96 93.19-6.74C93.53-6.52 93.70-6.12 93.70-5.56C93.70-5.00 93.53-4.59 93.20-4.33C92.87-4.07 92.36-3.94 91.67-3.94ZM96.29-7.87L96.29 0L100.73 0L100.73-0.85L97.28-0.85L97.28-7.87ZM105.50-3.20L103.14-3.20L103.51-4.40C103.66-4.84 103.79-5.28 103.92-5.72C104.05-6.15 104.17-6.60 104.29-7.06L104.34-7.06C104.47-6.60 104.60-6.15 104.72-5.72C104.85-5.28 104.99-4.84 105.13-4.40ZM105.76-2.40L106.50 0L107.57 0L104.90-7.87L103.78-7.87L101.11 0L102.13 0L102.89-2.40ZM108.11-3.94C108.11-3.30 108.19-2.72 108.37-2.21C108.54-1.71 108.78-1.28 109.09-0.93C109.39-0.58 109.76-0.32 110.18-0.13C110.60 0.05 111.06 0.14 111.55 0.14C112.06 0.14 112.50 0.04 112.90-0.16C113.29-0.36 113.64-0.64 113.95-1.00L113.39-1.61C113.13-1.33 112.86-1.11 112.58-0.96C112.29-0.81 111.96-0.73 111.58-0.73C111.20-0.73 110.86-0.81 110.56-0.96C110.26-1.11 110.01-1.33 109.80-1.61C109.59-1.89 109.43-2.23 109.31-2.62C109.20-3.02 109.14-3.46 109.14-3.96C109.14-4.45 109.20-4.89 109.32-5.28C109.44-5.67 109.61-6.01 109.82-6.28C110.04-6.56 110.30-6.77 110.60-6.92C110.91-7.07 111.25-7.14 111.62-7.14C111.96-7.14 112.25-7.07 112.51-6.94C112.76-6.81 112.99-6.63 113.20-6.41L113.76-7.04C113.53-7.30 113.23-7.53 112.87-7.72C112.51-7.92 112.09-8.02 111.61-8.02C111.11-8.02 110.64-7.92 110.21-7.73C109.79-7.55 109.42-7.28 109.10-6.92C108.79-6.57 108.55-6.14 108.37-5.64C108.20-5.14 108.11-4.57 108.11-3.94ZM115.42-7.87L115.42 0L120.07 0L120.07-0.85L116.41-0.85L116.41-3.71L119.40-3.71L119.40-4.56L116.41-4.56L116.41-7.03L119.95-7.03L119.95-7.87Z" transform="translate(-65, -65)"></path></g></g></g></g><defs v-gra="od"></defs></svg>