<svg width="333" height="65" viewBox="0 0 333 65" fill="none" xmlns="http://www.w3.org/2000/svg">
<path d="M34.712 38.24L35.864 51.168C32.5787 52.4907 28.5253 53.152 23.704 53.152C19.1387 53.152 15.3627 52.6613 12.376 51.68C9.38933 50.656 7.02133 49.12 5.272 47.072C3.52267 45.024 2.28533 42.4213 1.56 39.264C0.877333 36.1067 0.536 32.3733 0.536 28.064C0.536 23.8827 0.856 20.2347 1.496 17.12C2.17867 13.9627 3.37333 11.3387 5.08 9.248C6.78667 7.11466 9.09067 5.51466 11.992 4.448C14.936 3.38133 18.648 2.848 23.128 2.848C24.1093 2.848 25.1973 2.912 26.392 3.04C27.6293 3.12533 28.824 3.25333 29.976 3.424C31.1707 3.59466 32.28 3.808 33.304 4.064C34.3707 4.27733 35.224 4.53333 35.864 4.832L33.56 16.608C30.1467 15.8827 27.096 15.52 24.408 15.52C21.6347 15.52 19.7147 15.776 18.648 16.288C17.5813 16.8 17.048 17.824 17.048 19.36V39.456C18.0293 39.6693 19.0107 39.84 19.992 39.968C21.016 40.0533 22.0613 40.096 23.128 40.096C27.3947 40.096 31.256 39.4773 34.712 38.24ZM39.679 32.8C39.679 25.9307 41.279 20.832 44.479 17.504C47.679 14.1333 52.863 12.448 60.031 12.448C67.199 12.448 72.383 14.1333 75.583 17.504C78.783 20.832 80.383 25.9307 80.383 32.8C80.383 39.6693 78.783 44.7893 75.583 48.16C72.383 51.488 67.199 53.152 60.031 53.152C53.0337 53.152 47.8923 51.5093 44.607 48.224C41.3217 44.9387 39.679 39.7973 39.679 32.8ZM56.191 26.912V41.952H58.559C60.4363 41.952 61.7803 41.76 62.591 41.376C63.4443 40.992 63.871 40.096 63.871 38.688V23.648H61.503C59.6257 23.648 58.2603 23.84 57.407 24.224C56.5963 24.608 56.191 25.504 56.191 26.912ZM108.032 52V25.12H106.944C106.261 25.12 105.6 25.1413 104.96 25.184C104.362 25.2267 103.829 25.376 103.36 25.632C102.89 25.8453 102.528 26.1867 102.272 26.656C102.016 27.1253 101.888 27.7867 101.888 28.64V52H86.5275V13.6H94.2075L97.6635 17.12C100.778 14.0053 104.874 12.448 109.952 12.448C114.986 12.448 118.656 13.4933 120.96 15.584C124.16 13.4933 127.786 12.448 131.84 12.448C135.978 12.448 139.178 13.2373 141.44 14.816C143.744 16.352 144.896 18.5067 144.896 21.28V52H129.536V25.12H128.448C127.85 25.12 127.253 25.1413 126.656 25.184C126.058 25.2267 125.525 25.3547 125.056 25.568C124.629 25.7387 124.245 26.0373 123.904 26.464C123.605 26.8907 123.434 27.4667 123.392 28.192V52H108.032ZM152.153 64.672V13.6H159.833L162.649 17.44C164.91 14.112 169.091 12.448 175.193 12.448C178.265 12.448 180.846 13.0027 182.937 14.112C185.027 15.2213 186.713 16.7147 187.993 18.592C189.315 20.4267 190.254 22.5813 190.809 25.056C191.406 27.5307 191.705 30.112 191.705 32.8C191.705 35.4027 191.449 37.856 190.937 40.16C190.425 42.464 189.571 44.512 188.377 46.304C187.182 48.0533 185.603 49.44 183.641 50.464C181.678 51.488 179.246 52 176.345 52H167.513V63.52L152.153 64.672ZM167.513 26.528V41.952H169.881C171.758 41.952 173.102 41.76 173.913 41.376C174.766 40.992 175.193 40.096 175.193 38.688V23.648H172.825C171.715 23.648 170.819 23.6907 170.137 23.776C169.454 23.8613 168.857 24.1387 168.345 24.608C167.833 25.0347 167.555 25.6747 167.513 26.528Z" fill="#444444"/>
<path d="M240.08 52H224.72V35.04H213.2V52H197.84V4H213.2V20.96H224.72V4H240.08V52ZM247.01 13.6H262.37V41.952H264.738C266.615 41.952 267.959 41.76 268.77 41.376C269.623 40.992 270.05 40.096 270.05 38.688V13.6H285.41V52H277.729L273.25 47.648C270.178 51.3173 265.804 53.152 260.13 53.152C255.564 53.152 252.236 52.192 250.146 50.272C248.055 48.3093 247.01 45.0453 247.01 40.48V13.6ZM293.09 50.08V2.08L308.45 0.927998V13.664C310.327 12.8533 312.887 12.448 316.13 12.448C319.202 12.448 321.783 13.0027 323.874 14.112C325.965 15.2213 327.65 16.7147 328.93 18.592C330.253 20.4267 331.191 22.5813 331.746 25.056C332.343 27.5307 332.642 30.112 332.642 32.8C332.642 40.0107 330.978 45.216 327.65 48.416C324.322 51.5733 319.287 53.152 312.546 53.152C305.805 53.152 299.319 52.128 293.09 50.08ZM308.45 26.528V41.952H310.818C312.695 41.952 314.039 41.76 314.85 41.376C315.703 40.992 316.13 40.096 316.13 38.688V23.648H313.762C312.653 23.648 311.757 23.6907 311.074 23.776C310.391 23.8613 309.794 24.1387 309.282 24.608C308.77 25.0347 308.493 25.6747 308.45 26.528Z" fill="#00178D"/>
</svg>
